<svg width="403" height="810" viewBox="0 0 403 830" xmlns="http://www.w3.org/2000/svg">

  <g filter="url(#filter3_dd_1911_11162)">
    <rect x="217" y="8" width="166" height="153" rx="8" fill="white" shape-rendering="crispEdges"/>
    <!-- <text x="250" y="143" font-family="Arial" font-size="20" fill="#FFFF00">JavaScript</text> -->
    <g transform="translate(250, 36) scale(0.15)">
      <rect width="630" height="630" fill="#f7df1e" rx="30"/>
      <path d="m423.2 492.19c12.69 20.72 29.2 35.95 58.4 35.95 24.53 0 40.2-12.26 40.2-29.2 0-20.3-16.1-27.49-43.1-39.3l-14.8-6.35c-42.72-18.2-71.1-41-71.1-89.2 0-44.4 33.83-78.2 86.7-78.2 37.64 0 64.7 13.1 84.2 47.4l-46.1 29.6c-10.15-18.2-21.1-25.37-38.1-25.37-17.34 0-28.33 11-28.33 25.37 0 17.76 11 24.95 36.4 35.95l14.8 6.34c50.3 21.57 78.7 43.56 78.7 93 0 53.3-41.87 82.5-98.1 82.5-54.98 0-90.5-26.2-107.88-60.54zm-209.13 5.13c9.3 16.5 17.76 30.45 38.1 30.45 19.45 0 31.72-7.61 31.72-37.2v-201.3h59.2v202.1c0 61.3-35.94 89.2-88.4 89.2-47.4 0-74.85-24.53-88.81-54.075z"/>
    </g>
  </g>

  <g filter="url(#filter3_dd_1911_11162)">
    <rect x="217" y="175" width="166" height="153" rx="8" fill="white" shape-rendering="crispEdges"/>
    <!-- <text x="280" y="310" font-family="Arial" font-size="20" fill="#41B883">Vue</text>  -->
    <g transform="translate(248, 210) scale(0.39)">
      <g id="SVGRepo_bgCarrier" stroke-width="0"></g>
      <g id="SVGRepo_tracerCarrier" stroke-linecap="round" stroke-linejoin="round"></g>
      <g id="SVGRepo_iconCarrier"> 
      <g> 
        <path d="M204.8,0 L256,0 L128,220.8 L0,0 L50.56,0 L97.92,0 L128,51.2 L157.44,0 L204.8,0 Z" fill="#41B883"> </path> 
        <path d="M0,0 L128,220.8 L256,0 L204.8,0 L128,132.48 L50.56,0 L0,0 Z" fill="#41B883"> </path> 
        <path d="M50.56,0 L128,133.12 L204.8,0 L157.44,0 L128,51.2 L97.92,0 L50.56,0 Z" fill="#35495E"> </path> 
      </g> 
      </g>
    </g>
  </g>

  <g filter="url(#filter3_dd_1911_11162)">
    <rect x="217" y="342" width="166" height="153" rx="8" fill="white" shape-rendering="crispEdges"/>
    <!-- <text x="270" y="475" font-family="Arial" font-size="20" fill="#1697F6">Vuetify</text> -->
    <g transform="translate(230, 355) scale(0.33)">
      <path d="M203.087 130.155L144.963 230.852L200 326.236L272.896 199.975L345.758 73.7152H235.651L203.087 130.155Z" fill="#1697F6"/>
      <path d="M127.137 199.975L130.955 206.615L185.328 112.393L207.668 73.7152H200H54.2415L127.137 199.975Z" fill="#AEDDFF"/>
      <path d="M235.651 73.7152C263.203 164.385 200 326.236 200 326.236L144.963 230.852L235.651 73.7152Z" fill="#1867C0"/>
      <path d="M207.668 73.7152C91.586 73.7152 130.955 206.615 130.955 206.615L207.668 73.7152Z" fill="#7BC6FF"/>
    </g>
  </g>

    <g filter="url(#filter3_dd_1911_11162)">
    <rect x="217" y="509" width="166" height="153" rx="8" fill="white" shape-rendering="crispEdges"/>
    <!-- <text x="280" y="643" font-family="Arial" font-size="20" fill="#FFA800">Vite</text> -->
    <g transform="translate(247, 535) scale(0.25)">
      <path d="M399.641 59.5246L215.643 388.545C211.844 395.338 202.084 395.378 198.228 388.618L10.5817 59.5563C6.38087 52.1896 12.6802 43.2665 21.0281 44.7586L205.223 77.6824C206.398 77.8924 207.601 77.8904 208.776 77.6763L389.119 44.8058C397.439 43.2894 403.768 52.1434 399.641 59.5246Z" fill="url(#paint0_linear)"/>
      <path d="M292.965 1.5744L156.801 28.2552C154.563 28.6937 152.906 30.5903 152.771 32.8664L144.395 174.33C144.198 177.662 147.258 180.248 150.51 179.498L188.42 170.749C191.967 169.931 195.172 173.055 194.443 176.622L183.18 231.775C182.422 235.487 185.907 238.661 189.532 237.56L212.947 230.446C216.577 229.344 220.065 232.527 219.297 236.242L201.398 322.875C200.278 328.294 207.486 331.249 210.492 326.603L212.5 323.5L323.454 102.072C325.312 98.3645 322.108 94.137 318.036 94.9228L279.014 102.454C275.347 103.161 272.227 99.746 273.262 96.1583L298.731 7.86689C299.767 4.27314 296.636 0.855181 292.965 1.5744Z" fill="url(#paint1_linear)"/>
      <defs>
      <linearGradient id="paint0_linear" x1="6.00017" y1="32.9999" x2="235" y2="344" gradientUnits="userSpaceOnUse">
      <stop stop-color="#41D1FF"/>
      <stop offset="1" stop-color="#BD34FE"/>
      </linearGradient>
      <linearGradient id="paint1_linear" x1="194.651" y1="8.81818" x2="236.076" y2="292.989" gradientUnits="userSpaceOnUse">
      <stop stop-color="#FFEA83"/>
      <stop offset="0.0833333" stop-color="#FFDD35"/>
      <stop offset="1" stop-color="#FFA800"/>
      </linearGradient>
      </defs>
    </g>
  </g>

  
  <g filter="url(#filter3_dd_1911_11162)">
    <rect x="217" y="676" width="166" height="153" rx="8" fill="white" shape-rendering="crispEdges"/>
    <!-- <text x="273" y="810" font-family="Arial" font-size="20" fill="#FFFF00">Pinia</text> -->
    <g transform="translate(258, 695) scale(0.33)">
        	<defs>
		<linearGradient id="logosPinia0" x1="55.342%" x2="42.817%" y1="0%" y2="42.863%">
			<stop offset="0%" stop-color="#52ce63" />
			<stop offset="100%" stop-color="#51a256" />
		</linearGradient>
		<linearGradient id="logosPinia1" x1="55.349%" x2="42.808%" y1="0%" y2="42.863%">
			<stop offset="0%" stop-color="#52ce63" />
			<stop offset="100%" stop-color="#51a256" />
		</linearGradient>
		<linearGradient id="logosPinia2" x1="50%" x2="50%" y1="0%" y2="58.811%">
			<stop offset="0%" stop-color="#8ae99c" />
			<stop offset="100%" stop-color="#52ce63" />
		</linearGradient>
		<linearGradient id="logosPinia3" x1="51.378%" x2="44.585%" y1="17.473%" y2="100%">
			<stop offset="0%" stop-color="#ffe56c" />
			<stop offset="100%" stop-color="#ffc63a" />
		</linearGradient>
    </defs>
    <path fill="url(#logosPinia0)" d="M67.56 173.328c30.366-2.985 41.08-27.648 44.735-64.823c3.654-37.175-21.174-70.814-31.502-69.799s-43.15 40.322-46.805 77.497c-3.654 37.175 3.205 60.11 33.572 57.125" transform="rotate(-38 72.877 106.136)" />
    <path fill="url(#logosPinia1)" d="M184.454 186.277c30.367 2.986 36.394-20.032 32.74-57.207c-3.655-37.175-35.645-76.4-45.973-77.415s-35.989 32.542-32.334 69.717s15.201 61.92 45.567 64.905" transform="rotate(52 178.34 119.085)" />
    <path fill="url(#logosPinia2)" d="M129.232 151.601c27.341 0 34.878-26.184 34.878-67.013S138.531 3.745 129.232 3.745S93.605 43.758 93.605 84.588c0 40.829 8.286 67.013 35.627 67.013" transform="rotate(7 128.858 77.673)" />
    <path fill="url(#logosPinia3)" d="M113.386 330.307c56.896 0 103.038-16.528 103.038-91.482s-46.142-136.462-103.038-136.462c-56.897 0-103.002 61.507-103.002 136.462s46.105 91.482 103.002 91.482" />
    <ellipse cx="165.427" cy="216.677" fill="#eaadcc" rx="14.717" ry="6.845" />
    <ellipse cx="57.273" cy="212.57" fill="#eaadcc" rx="14.717" ry="6.845" transform="rotate(7 57.273 212.57)" />
    <path d="M96.266 210.285a2.054 2.054 0 1 0-3.406 2.295c3.151 4.676 7.997 7.39 14.373 8.119c6.348.725 12.016-.902 16.877-4.852a2.054 2.054 0 1 0-2.59-3.187c-3.999 3.249-8.563 4.559-13.82 3.958c-5.23-.598-8.986-2.7-11.434-6.333M65.818 178.63a14.67 14.67 0 0 1 10.551 3.945a14.67 14.67 0 0 1 4.672 10.25a14.67 14.67 0 0 1-3.945 10.55a14.67 14.67 0 0 1-10.25 4.672a14.67 14.67 0 0 1-10.551-3.945a14.67 14.67 0 0 1-4.67-10.25a14.67 14.67 0 0 1 3.944-10.55a14.67 14.67 0 0 1 10.249-4.672" />
    <path fill="#fff" d="M66.59 190.932a4.792 4.792 0 1 0-9.578.336a4.792 4.792 0 0 0 9.579-.336" />
    <path d="M154.99 182.366a14.67 14.67 0 0 1 10.552 3.944a14.67 14.67 0 0 1 4.67 10.25a14.67 14.67 0 0 1-3.944 10.551a14.67 14.67 0 0 1-10.25 4.671a14.67 14.67 0 0 1-10.55-3.945a14.67 14.67 0 0 1-4.672-10.25a14.67 14.67 0 0 1 3.945-10.55a14.67 14.67 0 0 1 10.25-4.671" />
    <path fill="#fff" d="M65.71 175.552c9.824-.343 18.066 7.342 18.409 17.165s-7.342 18.065-17.166 18.408s-18.064-7.342-18.407-17.166c-.343-9.823 7.341-18.064 17.164-18.407m12.252 17.38c-.224-6.423-5.613-11.448-12.037-11.223c-6.422.224-11.447 5.612-11.222 12.035c.224 6.424 5.612 11.448 12.035 11.224s11.448-5.612 11.224-12.036m76.921-13.645c9.824-.343 18.065 7.342 18.408 17.165s-7.342 18.065-17.165 18.408s-18.065-7.342-18.408-17.165s7.342-18.065 17.165-18.408m12.251 17.38c-.224-6.423-5.612-11.447-12.036-11.223s-11.448 5.613-11.223 12.036s5.612 11.448 12.035 11.224c6.424-.225 11.448-5.613 11.224-12.037" />
    <path fill="#fff" d="M155.763 194.668a4.792 4.792 0 1 0-9.578.335a4.792 4.792 0 0 0 9.578-.335" />
    <path fill="#ecb732" d="m38.083 243.16l22.33 23.235l16.022-17.044a3.765 3.765 0 0 1 5.486 5.157l-16.283 17.324l23.1 24.036a3.765 3.765 0 1 1-5.43 5.218l-22.834-23.761l-10.725 11.41a3.765 3.765 0 1 1-5.486-5.158l10.986-11.688l-22.595-23.511a3.765 3.765 0 1 1 5.43-5.218m149.956 0a3.765 3.765 0 1 1 5.429 5.218l-22.596 23.511l10.988 11.688a3.765 3.765 0 0 1-.042 5.201l-.123.121a3.765 3.765 0 0 1-5.322-.165l-10.725-11.41l-22.834 23.762a3.765 3.765 0 0 1-5.197.222l-.127-.116a3.765 3.765 0 0 1-.105-5.324l23.1-24.036l-16.284-17.324a3.765 3.765 0 0 1 .042-5.2l.123-.121a3.765 3.765 0 0 1 5.321.164l16.021 17.044z" />
    <path fill="#ffc73b" d="M136.602 126.74a3.765 3.765 0 0 1 0 5.323l-17.53 17.531l10.684 10.686a3.765 3.765 0 0 1 .12 5.2l-.12.125a3.765 3.765 0 0 1-5.324 0l-10.686-10.686l-10.686 10.686a3.765 3.765 0 1 1-5.324-5.325l10.685-10.686l-17.53-17.53a3.765 3.765 0 0 1-.12-5.2l.12-.125a3.765 3.765 0 0 1 5.324 0l17.531 17.53l17.531-17.53a3.765 3.765 0 0 1 5.325 0" />
    </g>
  </g>



  <g filter="url(#filter3_dd_1911_11162)">
    <rect x="20" y="8" width="166" height="153" rx="8" fill="white" shape-rendering="crispEdges"/>
    <!-- <text x="55" y="143" font-family="Arial" font-size="20" fill="#007acc">TypeScript</text> -->
    <g transform="translate(56, 38) scale(0.23)">
      <style>.st0{fill:#007acc}.st1{fill:#fff}</style>
      <path class="st0" d="M0 200V0h400v400H0" />
      <path class="st1" d="M87.7 200.7V217h52v148h36.9V217h52v-16c0-9 0-16.3-.4-16.5 0-.3-31.7-.4-70.2-.4l-70 .3v16.4l-.3-.1zM321.4 184c10.2 2.4 18 7 25 14.3 3.7 4 9.2 11 9.6 12.8 0 .6-17.3 12.3-27.8 18.8-.4.3-2-1.4-3.6-4-5.2-7.4-10.5-10.6-18.8-11.2-12-.8-20 5.5-20 16 0 3.2.6 5 1.8 7.6 2.7 5.5 7.7 8.8 23.2 15.6 28.6 12.3 41 20.4 48.5 32 8.5 13 10.4 33.4 4.7 48.7-6.4 16.7-22 28-44.3 31.7-7 1.2-23 1-30.5-.3-16-3-31.3-11-40.7-21.3-3.7-4-10.8-14.7-10.4-15.4l3.8-2.4 15-8.7 11.3-6.6 2.6 3.5c3.3 5.2 10.7 12.2 15 14.6 13 6.7 30.4 5.8 39-2 3.7-3.4 5.3-7 5.3-12 0-4.6-.7-6.7-3-10.2-3.2-4.4-9.6-8-27.6-16-20.7-8.8-29.5-14.4-37.7-23-4.7-5.2-9-13.3-11-20-1.5-5.8-2-20-.6-25.7 4.3-20 19.4-34 41-38 7-1.4 23.5-.8 30.4 1l-.2.2z"/>
    
    </g>
  </g>


  <g filter="url(#filter3_dd_1911_11162)"> 
    <rect x="20" y="175" width="166" height="153" rx="8" fill="white" shape-rendering="crispEdges"/>
    <!-- <text x="75" y="300" font-family="Arial" font-size="20" fill="#000000">Node</text> -->
    <g transform="translate(52, 221) scale(0.23)">
        <defs><clipPath id="a"><path d="M239.03 226.605l-42.13 24.317c-1.578.91-2.546 2.59-2.546 4.406v48.668c0 1.817.968 3.496 2.546 4.406l42.133 24.336c1.575.907 3.517.907 5.09 0l42.126-24.336c1.57-.91 2.54-2.59 2.54-4.406v-48.668c0-1.816-.97-3.496-2.55-4.406l-42.12-24.317c-.79-.453-1.67-.68-2.55-.68-.88 0-1.76.227-2.55.68"/></clipPath><linearGradient id="b" x1="-.348" x2="1.251" gradientTransform="rotate(116.114 53.1 202.97) scale(86.48)" gradientUnits="userSpaceOnUse"><stop offset=".3" stop-color="#3E863D"/><stop offset=".5" stop-color="#55934F"/><stop offset=".8" stop-color="#5AAD45"/></linearGradient><clipPath id="c"><path d="M195.398 307.086c.403.523.907.976 1.5 1.316l36.14 20.875 6.02 3.46c.9.52 1.926.74 2.934.665.336-.027.672-.09 1-.183l44.434-81.36c-.34-.37-.738-.68-1.184-.94l-27.586-15.93-14.582-8.39c-.414-.24-.863-.41-1.32-.53zm0 0"/></clipPath><linearGradient id="d" x1="-.456" x2=".582" gradientTransform="rotate(-36.46 550.846 -214.337) scale(132.798)" gradientUnits="userSpaceOnUse"><stop offset=".57" stop-color="#3E863D"/><stop offset=".72" stop-color="#619857"/><stop offset="1" stop-color="#76AC64"/></linearGradient><clipPath id="e"><path d="M241.066 225.953c-.707.07-1.398.29-2.035.652l-42.01 24.247 45.3 82.51c.63-.09 1.25-.3 1.81-.624l42.13-24.336c1.3-.754 2.19-2.03 2.46-3.476l-46.18-78.89c-.34-.067-.68-.102-1.03-.102-.14 0-.28.007-.42.02"/></clipPath><linearGradient id="f" x1=".043" x2=".984" gradientTransform="translate(192.862 279.652) scale(97.417)" gradientUnits="userSpaceOnUse"><stop offset=".16" stop-color="#6BBF47"/><stop offset=".38" stop-color="#79B461"/><stop offset=".47" stop-color="#75AC64"/><stop offset=".7" stop-color="#659E5A"/><stop offset=".9" stop-color="#3E863D"/></linearGradient></defs><path fill="#689f63" d="M218.647 270.93c-1.46 0-2.91-.383-4.19-1.12l-13.337-7.896c-1.992-1.114-1.02-1.508-.363-1.735 2.656-.93 3.195-1.14 6.03-2.75.298-.17.688-.11.993.07l10.246 6.08c.37.2.895.2 1.238 0l39.95-23.06c.37-.21.61-.64.61-1.08v-46.1c0-.46-.24-.87-.618-1.1l-39.934-23.04c-.37-.22-.86-.22-1.23 0l-39.926 23.04c-.387.22-.633.65-.633 1.09v46.1c0 .44.24.86.62 1.07l10.94 6.32c5.94 2.97 9.57-.53 9.57-4.05v-45.5c0-.65.51-1.15 1.16-1.15h5.06c.63 0 1.15.5 1.15 1.15v45.52c0 7.92-4.32 12.47-11.83 12.47-2.31 0-4.13 0-9.21-2.5l-10.48-6.04c-2.59-1.5-4.19-4.3-4.19-7.29v-46.1c0-3 1.6-5.8 4.19-7.28l39.99-23.07c2.53-1.43 5.89-1.43 8.4 0l39.94 23.08c2.58 1.49 4.19 4.28 4.19 7.28v46.1c0 2.99-1.61 5.78-4.19 7.28l-39.94 23.07c-1.28.74-2.73 1.12-4.21 1.12"/><path fill="#689f63" d="M230.987 239.164c-17.48 0-21.145-8.024-21.145-14.754 0-.64.516-1.15 1.157-1.15h5.16c.57 0 1.05.415 1.14.978.78 5.258 3.1 7.91 13.67 7.91 8.42 0 12-1.902 12-6.367 0-2.57-1.02-4.48-14.1-5.76-10.94-1.08-17.7-3.49-17.7-12.24 0-8.06 6.8-12.86 18.19-12.86 12.79 0 19.13 4.44 19.93 13.98.03.33-.09.65-.31.89-.22.23-.53.37-.85.37h-5.19c-.54 0-1.01-.38-1.12-.9-1.25-5.53-4.27-7.3-12.48-7.3-9.19 0-10.26 3.2-10.26 5.6 0 2.91 1.26 3.76 13.66 5.4 12.28 1.63 18.11 3.93 18.11 12.56 0 8.7-7.26 13.69-19.92 13.69m48.66-48.89h1.34c1.1 0 1.31-.77 1.31-1.22 0-1.18-.81-1.18-1.26-1.18h-1.38zm-1.63-3.78h2.97c1.02 0 3.02 0 3.02 2.28 0 1.59-1.02 1.92-1.63 2.12 1.19.08 1.27.86 1.43 1.96.08.69.21 1.88.45 2.28h-1.83c-.05-.4-.33-2.6-.33-2.72-.12-.49-.29-.73-.9-.73h-1.51v3.46h-1.67zm-3.57 4.3c0 3.58 2.89 6.48 6.44 6.48 3.58 0 6.47-2.96 6.47-6.48 0-3.59-2.93-6.44-6.48-6.44-3.5 0-6.44 2.81-6.44 6.43m14.16.03c0 4.24-3.47 7.7-7.7 7.7-4.2 0-7.7-3.42-7.7-7.7 0-4.36 3.58-7.7 7.7-7.7 4.15 0 7.69 3.35 7.69 7.7"/><path fill="#333" fill-rule="evenodd" d="M94.936 90.55c0-1.84-.97-3.53-2.558-4.445l-42.356-24.37c-.715-.42-1.516-.64-2.328-.67h-.438c-.812.03-1.613.25-2.34.67L2.562 86.105C.984 87.025 0 88.715 0 90.555l.093 65.64c0 .91.47 1.76 1.27 2.21.78.48 1.76.48 2.54 0l25.18-14.42c1.59-.946 2.56-2.618 2.56-4.44V108.88c0-1.83.97-3.52 2.555-4.43l10.72-6.174c.796-.46 1.67-.688 2.56-.688.876 0 1.77.226 2.544.687l10.715 6.172c1.586.91 2.56 2.6 2.56 4.43v30.663c0 1.82.983 3.5 2.565 4.44l25.164 14.41c.79.47 1.773.47 2.56 0 .776-.45 1.268-1.3 1.268-2.21zm199.868 34.176c0 .457-.243.88-.64 1.106l-14.548 8.386c-.395.227-.883.227-1.277 0l-14.55-8.386c-.4-.227-.64-.65-.64-1.106V107.93c0-.458.24-.88.63-1.11l14.54-8.4c.4-.23.89-.23 1.29 0l14.55 8.4c.4.23.64.652.64 1.11zM298.734.324c-.794-.442-1.76-.43-2.544.027-.78.46-1.262 1.3-1.262 2.21v65c0 .64-.34 1.23-.894 1.55-.55.32-1.235.32-1.79 0L281.634 63c-1.58-.914-3.526-.914-5.112 0l-42.37 24.453c-1.583.91-2.56 2.6-2.56 4.42v48.92c0 1.83.977 3.51 2.56 4.43l42.37 24.47c1.582.91 3.53.91 5.117 0l42.37-24.48c1.58-.92 2.56-2.6 2.56-4.43V18.863c0-1.856-1.01-3.563-2.63-4.47zm141.093 107.164c1.574-.914 2.543-2.602 2.543-4.422V91.21c0-1.824-.97-3.507-2.547-4.425l-42.1-24.44c-1.59-.92-3.54-.92-5.13 0l-42.36 24.45c-1.59.92-2.56 2.6-2.56 4.43v48.9c0 1.84.99 3.54 2.58 4.45l42.09 23.99c1.55.89 3.45.9 5.02.03l25.46-14.15c.8-.45 1.31-1.3 1.31-2.22 0-.92-.49-1.78-1.29-2.23l-42.62-24.46c-.8-.45-1.29-1.3-1.29-2.21v-15.34c0-.916.48-1.76 1.28-2.216l13.26-7.65c.79-.46 1.76-.46 2.55 0l13.27 7.65c.79.45 1.28 1.3 1.28 2.21v12.06c0 .91.49 1.76 1.28 2.22.79.45 1.77.45 2.56-.01zm0 0"/><path fill="#689f63" fill-rule="evenodd" d="M394.538 105.2c.3-.177.676-.177.98 0l8.13 4.69c.304.176.49.5.49.85v9.39c0 .35-.186.674-.49.85l-8.13 4.69c-.304.177-.68.177-.98 0l-8.125-4.69c-.31-.176-.5-.5-.5-.85v-9.39c0-.35.18-.674.49-.85zm0 0"/><g clip-path="url(#a)" transform="translate(-78.306 -164.016)"><path fill="url(#b)" d="M331.363 246.793l-118.715-58.19-60.87 124.174L270.49 370.97zm0 0"/></g><g clip-path="url(#c)" transform="translate(-78.306 -164.016)"><path fill="url(#d)" d="M144.07 264.004l83.825 113.453 110.86-81.906-83.83-113.45zm0 0"/></g><g clip-path="url(#e)" transform="translate(-78.306 -164.016)"><path fill="url(#f)" d="M197.02 225.934v107.43h91.683v-107.43zm0 0"/></g>
    </g>
  </g>

  <g filter="url(#filter3_dd_1911_11162)"> 
    <rect x="20" y="342" width="166" height="153" rx="8" fill="white" shape-rendering="crispEdges"/>
    <!-- <text x="75" y="300" font-family="Arial" font-size="20" fill="#000000">Postgres</text> -->
    <g transform="translate(52, 370) scale(4)">
      <style><![CDATA[.B{stroke-linecap:round}.C{stroke-linejoin:round}.D{stroke-linejoin:miter}.E{stroke-width:.716}]]></style><g fill="none" stroke="#fff"><path d="M18.983 18.636c.163-1.357.114-1.555 1.124-1.336l.257.023c.777.035 1.793-.125 2.4-.402 1.285-.596 2.047-1.592.78-1.33-2.89.596-3.1-.383-3.1-.383 3.053-4.53 4.33-10.28 3.227-11.687-3.004-3.84-8.205-2.024-8.292-1.976l-.028.005c-.57-.12-1.2-.19-1.93-.2-1.308-.02-2.3.343-3.054.914 0 0-9.277-3.822-8.846 4.807.092 1.836 2.63 13.9 5.66 10.25C8.29 15.987 9.36 14.86 9.36 14.86c.53.353 1.167.533 1.834.468l.052-.044a2.01 2.01 0 0 0 .021.518c-.78.872-.55 1.025-2.11 1.346-1.578.325-.65.904-.046 1.056.734.184 2.432.444 3.58-1.162l-.046.183c.306.245.285 1.76.33 2.842s.116 2.093.337 2.688.48 2.13 2.53 1.7c1.713-.367 3.023-.896 3.143-5.81" fill="#000" stroke="#000" stroke-linecap="butt" stroke-width="2.149" class="D"/><path d="M23.535 15.6c-2.89.596-3.1-.383-3.1-.383 3.053-4.53 4.33-10.28 3.228-11.687-3.004-3.84-8.205-2.023-8.292-1.976l-.028.005a10.31 10.31 0 0 0-1.929-.201c-1.308-.02-2.3.343-3.054.914 0 0-9.278-3.822-8.846 4.807.092 1.836 2.63 13.9 5.66 10.25C8.29 15.987 9.36 14.86 9.36 14.86c.53.353 1.167.533 1.834.468l.052-.044a2.02 2.02 0 0 0 .021.518c-.78.872-.55 1.025-2.11 1.346-1.578.325-.65.904-.046 1.056.734.184 2.432.444 3.58-1.162l-.046.183c.306.245.52 1.593.484 2.815s-.06 2.06.18 2.716.48 2.13 2.53 1.7c1.713-.367 2.6-1.32 2.725-2.906.088-1.128.286-.962.3-1.97l.16-.478c.183-1.53.03-2.023 1.085-1.793l.257.023c.777.035 1.794-.125 2.39-.402 1.285-.596 2.047-1.592.78-1.33z" fill="#336791" stroke="none"/><g class="E"><g class="B"><path d="M12.814 16.467c-.08 2.846.02 5.712.298 6.4s.875 2.05 2.926 1.612c1.713-.367 2.337-1.078 2.607-2.647l.633-5.017M10.356 2.2S1.072-1.596 1.504 7.033c.092 1.836 2.63 13.9 5.66 10.25C8.27 15.95 9.27 14.907 9.27 14.907m6.1-13.4c-.32.1 5.164-2.005 8.282 1.978 1.1 1.407-.175 7.157-3.228 11.687" class="C"/><path d="M20.425 15.17s.2.98 3.1.382c1.267-.262.504.734-.78 1.33-1.054.49-3.418.615-3.457-.06-.1-1.745 1.244-1.215 1.147-1.652-.088-.394-.69-.78-1.086-1.744-.347-.84-4.76-7.29 1.224-6.333.22-.045-1.56-5.7-7.16-5.782S7.99 8.196 7.99 8.196" stroke-linejoin="bevel"/></g><g class="C"><path d="M11.247 15.768c-.78.872-.55 1.025-2.11 1.346-1.578.325-.65.904-.046 1.056.734.184 2.432.444 3.58-1.163.35-.49-.002-1.27-.482-1.468-.232-.096-.542-.216-.94.23z"/><path d="M11.196 15.753c-.08-.513.168-1.122.433-1.836.398-1.07 1.316-2.14.582-5.537-.547-2.53-4.22-.527-4.22-.184s.166 1.74-.06 3.365c-.297 2.122 1.35 3.916 3.246 3.733" class="B"/></g></g><g fill="#fff" class="D"><path d="M10.322 8.145c-.017.117.215.43.516.472s.558-.202.575-.32-.215-.246-.516-.288-.56.02-.575.136z" stroke-width=".239"/><path d="M19.486 7.906c.016.117-.215.43-.516.472s-.56-.202-.575-.32.215-.246.516-.288.56.02.575.136z" stroke-width=".119"/></g><path d="M20.562 7.095c.05.92-.198 1.545-.23 2.524-.046 1.422.678 3.05-.413 4.68" class="B C E"/></g>
    </g>
  </g>

  <g filter="url(#filter3_dd_1911_11162)"> 
    <rect x="20" y="509" width="166" height="153" rx="8" fill="white" shape-rendering="crispEdges"/>
    <!-- <text x="75" y="300" font-family="Arial" font-size="20" fill="#000000">scc</text> -->
    <g transform="translate(48, 542) scale(0.23)">
      <path fill="#CF649A" d="M440.6 220.6c-17.9.101-33.4 4.4-46.4 10.801-4.8-9.5-9.6-17.801-10.399-24-.9-7.2-2-11.601-.9-20.2C384 178.6 389 166.4 389 165.4c-.101-.9-1.101-5.3-11.4-5.4s-19.2 2-20.2 4.7-3 8.9-4.3 15.3c-1.8 9.4-20.6 42.7-31.3 60.2-3.5-6.8-6.5-12.8-7.101-17.601-.899-7.199-2-11.6-.899-20.199 1.1-8.601 6.1-20.8 6.1-21.8-.1-.9-1.1-5.3-11.399-5.4-10.301-.1-19.2 2-20.2 4.7s-2.1 9.1-4.3 15.3C281.9 201.4 256.9 257 250.4 271.5c-3.3 7.4-6.199 13.3-8.3 17.3-2.1 4-.1.3-.3.7-1.8 3.4-2.8 5.3-2.8 5.3v.101c-1.4 2.5-2.9 4.899-3.601 4.899-.5 0-1.5-6.7.2-15.899 3.7-19.301 12.7-49.4 12.601-50.5 0-.5 1.699-5.801-5.801-8.5-7.3-2.7-9.899 1.8-10.5 1.8-.6 0-1.1 1.6-1.1 1.6s8.1-33.899-15.5-33.899c-14.8 0-35.2 16.1-45.3 30.8-6.4 3.5-20 10.899-34.4 18.8-5.5 3-11.2 6.2-16.6 9.1L117.9 251.9c-28.6-30.5-81.5-52.1-79.3-93.1.8-14.9 6-54.2 101.601-101.8 78.3-39 141-28.3 151.899-4.5 15.5 34-33.5 97.2-114.899 106.3-31 3.5-47.301-8.5-51.4-13-4.3-4.7-4.9-4.9-6.5-4-2.6 1.4-1 5.6 0 8.1 2.4 6.3 12.4 17.5 29.4 23.1 14.899 4.9 51.3 7.6 95.3-9.4 49.3-19.1 87.8-72.1 76.5-116.4-11.5-45.1-86.3-59.9-157-34.8C121.4 27.4 75.8 50.8 43 81.5 4 117.9-2.2 149.7.4 162.9c9.101 47.1 74 77.8 100 100.5-1.3.699-2.5 1.399-3.6 2-13 6.399-62.5 32.3-74.9 59.699-14 31 2.2 53.301 13 56.301 33.4 9.3 67.6-7.4 86.1-34.9 18.399-27.5 16.2-63.2 7.7-79.5l-.301-.6 10.2-6c6.601-3.9 13.101-7.5 18.8-10.601-3.199 8.7-5.5 19-6.699 34-1.4 17.601 5.8 40.4 15.3 49.4 4.2 3.899 9.2 4 12.3 4 11 0 16-9.101 21.5-20 6.8-13.3 12.8-28.7 12.8-28.7s-7.5 41.7 13 41.7c7.5 0 15-9.7 18.4-14.7v.1s.2-.3.6-1a36.13 36.13 0 0 0 1.2-1.899v-.2c3-5.2 9.7-17.1 19.7-36.8 12.899-25.4 25.3-57.2 25.3-57.2s1.2 7.8 4.9 20.6c2.199 7.601 6.999 15.9 10.699 24-3 4.2-4.8 6.601-4.8 6.601l.1.1c-2.399 3.2-5.1 6.601-7.899 10-10.2 12.2-22.4 26.101-24 30.101-1.9 4.699-1.5 8.199 2.2 11 2.7 2 7.5 2.399 12.6 2 9.2-.601 15.6-2.9 18.8-4.301 5-1.8 10.7-4.5 16.2-8.5 10-7.399 16.1-17.899 15.5-31.899-.3-7.7-2.8-15.3-5.9-22.5.9-1.3 1.801-2.601 2.7-4 15.8-23.101 28-48.5 28-48.5s1.2 7.8 4.9 20.6c1.899 6.5 5.7 13.601 9.1 20.601-14.8 12.1-24.1 26.1-27.3 35.3-5.9 17-1.3 24.7 7.4 26.5 3.899.8 9.5-1 13.699-2.8 5.2-1.7 11.5-4.601 17.301-8.9 10-7.4 19.6-17.7 19.1-31.6-.3-6.4-2-12.7-4.3-18.7 12.6-5.2 28.899-8.2 49.6-5.7 44.5 5.2 53.3 33 51.601 44.6-1.7 11.601-11 18-14.101 20-3.1 1.9-4.1 2.601-3.8 4 .4 2.101 1.8 2 4.5 1.601 3.7-.601 23.4-9.5 24.2-30.899 1.2-27.504-24.9-57.504-71.2-57.205zM97.4 336.3c-14.7 16.1-35.4 22.2-44.2 17-9.5-5.5-5.801-29.2 12.3-46.3 11-10.4 25.3-20 34.7-25.9 2.1-1.3 5.3-3.199 9.1-5.5.6-.399 1-.6 1-.6.7-.4 1.5-.9 2.3-1.4 6.7 24.4.3 45.8-15.2 62.7zm107.5-73.1c-5.1 12.5-15.9 44.6-22.4 42.8-5.601-1.5-9-25.8-1.101-49.8 4-12.101 12.5-26.5 17.5-32.101 8.101-9 16.9-12 19.101-8.3 2.6 4.801-9.9 39.601-13.1 47.401zm88.7 42.4c-2.2 1.101-4.2 1.9-5.1 1.301-.7-.4.899-1.9.899-1.9s11.1-11.9 15.5-17.4c2.5-3.199 5.5-6.899 8.7-11.1v1.2C313.6 292.1 299.8 301.7 293.6 305.6zm68.399-15.6c-1.6-1.2-1.399-4.9 4-16.5 2.101-4.6 6.9-12.3 15.2-19.6 1 3 1.601 5.899 1.5 8.6-.099 18-12.899 24.7-20.7 27.5z"/>
    </g>
  </g>

    <g filter="url(#filter3_dd_1911_11162)"> 
    <rect x="20" y="676" width="166" height="153" rx="8" fill="white" shape-rendering="crispEdges"/>
    <!-- <text x="75" y="300" font-family="Arial" font-size="20" fill="#000000">logo</text> -->
    <g transform="translate(53, 705) scale(1.6)">
      <path d="M32 61.477L43.784 25.2H20.216z" fill="#e24329"/><path d="M32 61.477L20.216 25.2H3.7z" fill="#fc6d26"/><path d="M3.7 25.2L.12 36.23a2.44 2.44 0 0 0 .886 2.728L32 61.477z" fill="#fca326"/><path d="M3.7 25.2h16.515L13.118 3.366c-.365-1.124-1.955-1.124-2.32 0z" fill="#e24329"/><path d="M32 61.477L43.784 25.2H60.3z" fill="#fc6d26"/><path d="M60.3 25.2l3.58 11.02a2.44 2.44 0 0 1-.886 2.728L32 61.477z" fill="#fca326"/><path d="M60.3 25.2H43.784l7.098-21.844c.365-1.124 1.955-1.124 2.32 0z" fill="#e24329"/>
    </g>
  </g>


<defs>

<filter id="filter3_dd_1911_11162" x="0" y="0" width="600" height="1000" filterUnits="userSpaceOnUse" color-interpolation-filters="sRGB">
<feFlood flood-opacity="0" result="BackgroundImageFix"/>
<feColorMatrix in="SourceAlpha" type="matrix" values="0 0 0 0 0 0 0 0 0 0 0 0 0 0 0 0 0 0 127 0" result="hardAlpha"/>
<feMorphology radius="4" operator="erode" in="SourceAlpha" result="effect1_dropShadow_1911_11162"/>
<feOffset dy="12"/>
<feGaussianBlur stdDeviation="12"/>
<feComposite in2="hardAlpha" operator="out"/>
<feColorMatrix type="matrix" values="0 0 0 0 0.568627 0 0 0 0 0.619608 0 0 0 0 0.670588 0 0 0 0.12 0"/>
<feBlend mode="normal" in2="BackgroundImageFix" result="effect1_dropShadow_1911_11162"/>
<feColorMatrix in="SourceAlpha" type="matrix" values="0 0 0 0 0 0 0 0 0 0 0 0 0 0 0 0 0 0 127 0" result="hardAlpha"/>
<feOffset/>
<feGaussianBlur stdDeviation="1"/>
<feComposite in2="hardAlpha" operator="out"/>
<feColorMatrix type="matrix" values="0 0 0 0 0.568627 0 0 0 0 0.619608 0 0 0 0 0.670588 0 0 0 0.2 0"/>
<feBlend mode="normal" in2="effect1_dropShadow_1911_11162" result="effect2_dropShadow_1911_11162"/>
<feBlend mode="normal" in="SourceGraphic" in2="effect2_dropShadow_1911_11162" result="shape"/>
</filter> 

</defs>
</svg>
